<svg width="10" height="3" viewBox="0 0 10 3" fill="none" xmlns="http://www.w3.org/2000/svg">
<path d="M2 1.5C2 2.05228 1.55228 2.5 1 2.5C0.447715 2.5 0 2.05228 0 1.5C0 0.947715 0.447715 0.5 1 0.5C1.55228 0.5 2 0.947715 2 1.5Z" fill="#252525"/>
<path d="M6 1.5C6 2.05228 5.55228 2.5 5 2.5C4.44772 2.5 4 2.05228 4 1.5C4 0.947715 4.44772 0.5 5 0.5C5.55228 0.5 6 0.947715 6 1.5Z" fill="#252525"/>
<path d="M10 1.5C10 2.05228 9.55229 2.5 9 2.5C8.44771 2.5 8 2.05228 8 1.5C8 0.947715 8.44771 0.5 9 0.5C9.55229 0.5 10 0.947715 10 1.5Z" fill="#252525"/>
</svg>
